<mxfile host="Electron" modified="2024-06-10T00:05:58.477Z" agent="Mozilla/5.0 (X11; Linux x86_64) AppleWebKit/537.36 (KHTML, like Gecko) draw.io/24.5.1 Chrome/124.0.6367.207 Electron/30.0.6 Safari/537.36" etag="7G0hcHa0KrvYRZB2LN7o" version="24.5.1" type="device">
  <diagram name="페이지-1" id="XSONL2qaN73VBcVf1ZOq">
    <mxGraphModel dx="1687" dy="934" grid="1" gridSize="10" guides="1" tooltips="1" connect="1" arrows="1" fold="1" page="1" pageScale="1" pageWidth="827" pageHeight="1169" math="0" shadow="0">
      <root>
        <mxCell id="0" />
        <mxCell id="1" parent="0" />
        <mxCell id="W09Jb_z6VvaA0PAget0v-1" value="Amazon EC2" style="sketch=0;outlineConnect=0;fontColor=#232F3E;gradientColor=none;strokeColor=#ffffff;fillColor=#232F3E;dashed=0;verticalLabelPosition=middle;verticalAlign=bottom;align=center;html=1;whiteSpace=wrap;fontSize=10;fontStyle=1;spacing=3;shape=mxgraph.aws4.productIcon;prIcon=mxgraph.aws4.ec2;" vertex="1" parent="1">
          <mxGeometry x="414" y="180" width="70" height="90" as="geometry" />
        </mxCell>
        <mxCell id="W09Jb_z6VvaA0PAget0v-2" value="" style="whiteSpace=wrap;html=1;fillColor=none;" vertex="1" parent="1">
          <mxGeometry x="414" y="250" width="250" height="230" as="geometry" />
        </mxCell>
        <mxCell id="W09Jb_z6VvaA0PAget0v-5" value="" style="whiteSpace=wrap;html=1;fillColor=none;" vertex="1" parent="1">
          <mxGeometry x="424" y="280" width="230" height="180" as="geometry" />
        </mxCell>
        <mxCell id="W09Jb_z6VvaA0PAget0v-3" value="CPU : 1Core / Memory : 1GB" style="text;html=1;align=center;verticalAlign=middle;resizable=0;points=[];autosize=1;strokeColor=none;fillColor=none;" vertex="1" parent="1">
          <mxGeometry x="484" y="220" width="180" height="30" as="geometry" />
        </mxCell>
        <mxCell id="W09Jb_z6VvaA0PAget0v-4" value="" style="image;sketch=0;aspect=fixed;html=1;points=[];align=center;fontSize=12;image=img/lib/mscae/Docker.svg;" vertex="1" parent="1">
          <mxGeometry x="434" y="290" width="50" height="41" as="geometry" />
        </mxCell>
        <mxCell id="W09Jb_z6VvaA0PAget0v-6" value="" style="sketch=0;points=[[0,0,0],[0.25,0,0],[0.5,0,0],[0.75,0,0],[1,0,0],[0,1,0],[0.25,1,0],[0.5,1,0],[0.75,1,0],[1,1,0],[0,0.25,0],[0,0.5,0],[0,0.75,0],[1,0.25,0],[1,0.5,0],[1,0.75,0]];outlineConnect=0;fontColor=#232F3E;fillColor=#7AA116;strokeColor=#ffffff;dashed=0;verticalLabelPosition=bottom;verticalAlign=top;align=center;html=1;fontSize=12;fontStyle=0;aspect=fixed;shape=mxgraph.aws4.resourceIcon;resIcon=mxgraph.aws4.s3;" vertex="1" parent="1">
          <mxGeometry x="794" y="250" width="64" height="64" as="geometry" />
        </mxCell>
        <mxCell id="W09Jb_z6VvaA0PAget0v-8" value="AWS S3&lt;div&gt;이미지 저장&lt;/div&gt;" style="text;html=1;align=left;verticalAlign=middle;resizable=0;points=[];autosize=1;strokeColor=none;fillColor=none;" vertex="1" parent="1">
          <mxGeometry x="858" y="275" width="80" height="40" as="geometry" />
        </mxCell>
        <mxCell id="W09Jb_z6VvaA0PAget0v-14" value="" style="sketch=0;outlineConnect=0;fontColor=#232F3E;gradientColor=none;fillColor=#C925D1;strokeColor=none;dashed=0;verticalLabelPosition=bottom;verticalAlign=top;align=center;html=1;fontSize=12;fontStyle=0;aspect=fixed;pointerEvents=1;shape=mxgraph.aws4.rds_instance_alt;" vertex="1" parent="1">
          <mxGeometry x="794" y="335" width="60" height="60" as="geometry" />
        </mxCell>
        <mxCell id="W09Jb_z6VvaA0PAget0v-16" value="" style="sketch=0;outlineConnect=0;fontColor=#232F3E;gradientColor=none;fillColor=#C925D1;strokeColor=none;dashed=0;verticalLabelPosition=bottom;verticalAlign=top;align=center;html=1;fontSize=12;fontStyle=0;aspect=fixed;pointerEvents=1;shape=mxgraph.aws4.rds_instance_alt;" vertex="1" parent="1">
          <mxGeometry x="794" y="415" width="58" height="58" as="geometry" />
        </mxCell>
        <mxCell id="W09Jb_z6VvaA0PAget0v-17" value="MariaDB" style="text;html=1;align=center;verticalAlign=middle;resizable=0;points=[];autosize=1;strokeColor=none;fillColor=none;" vertex="1" parent="1">
          <mxGeometry x="852" y="365" width="70" height="30" as="geometry" />
        </mxCell>
        <mxCell id="W09Jb_z6VvaA0PAget0v-18" value="MongoDB&lt;div&gt;현재는 사용 X&lt;/div&gt;" style="text;html=1;align=center;verticalAlign=middle;resizable=0;points=[];autosize=1;strokeColor=none;fillColor=none;" vertex="1" parent="1">
          <mxGeometry x="847" y="438" width="90" height="40" as="geometry" />
        </mxCell>
        <mxCell id="W09Jb_z6VvaA0PAget0v-19" value="" style="edgeStyle=none;orthogonalLoop=1;jettySize=auto;html=1;rounded=0;exitX=1;exitY=0.141;exitDx=0;exitDy=0;exitPerimeter=0;" edge="1" parent="1" source="W09Jb_z6VvaA0PAget0v-2">
          <mxGeometry width="100" relative="1" as="geometry">
            <mxPoint x="674" y="290" as="sourcePoint" />
            <mxPoint x="794" y="281.5" as="targetPoint" />
            <Array as="points" />
          </mxGeometry>
        </mxCell>
        <mxCell id="W09Jb_z6VvaA0PAget0v-20" value="" style="edgeStyle=none;orthogonalLoop=1;jettySize=auto;html=1;rounded=0;exitX=1;exitY=0.141;exitDx=0;exitDy=0;exitPerimeter=0;" edge="1" parent="1">
          <mxGeometry width="100" relative="1" as="geometry">
            <mxPoint x="664" y="365.5" as="sourcePoint" />
            <mxPoint x="794" y="365" as="targetPoint" />
            <Array as="points" />
          </mxGeometry>
        </mxCell>
        <mxCell id="W09Jb_z6VvaA0PAget0v-21" value="" style="edgeStyle=none;orthogonalLoop=1;jettySize=auto;html=1;rounded=0;exitX=1;exitY=0.141;exitDx=0;exitDy=0;exitPerimeter=0;" edge="1" parent="1">
          <mxGeometry width="100" relative="1" as="geometry">
            <mxPoint x="664" y="444.25" as="sourcePoint" />
            <mxPoint x="794" y="443.75" as="targetPoint" />
            <Array as="points" />
          </mxGeometry>
        </mxCell>
        <mxCell id="W09Jb_z6VvaA0PAget0v-23" value="API 호출" style="text;html=1;align=center;verticalAlign=middle;resizable=0;points=[];autosize=1;strokeColor=none;fillColor=none;" vertex="1" parent="1">
          <mxGeometry x="693" y="251" width="70" height="30" as="geometry" />
        </mxCell>
        <mxCell id="W09Jb_z6VvaA0PAget0v-24" value="" style="image;sketch=0;aspect=fixed;html=1;points=[];align=center;fontSize=12;image=img/lib/mscae/Cache_Redis_Product.svg;" vertex="1" parent="1">
          <mxGeometry x="464" y="370" width="53.57" height="45" as="geometry" />
        </mxCell>
        <mxCell id="W09Jb_z6VvaA0PAget0v-25" value="" style="shape=image;verticalLabelPosition=bottom;labelBackgroundColor=default;verticalAlign=top;aspect=fixed;imageAspect=0;image=data:image/png,iVBORw0KGgoAAAANSUhEUgAAAZAAAAGQCAMAAAC3Ycb+AAACvlBMVEX////9/vzY68263KeXyXeGwWJzt0hts0Bssz5utEJ3uU+JwmedzIDA367f7tXY68yl0Yt7u1OEwF+w1pnh79j5/PfB4K+HwWORxnDN5sDC4LB8u1SKw2jT6cbX68vl8d36/fms1ZRutEG63Kbk8dyEwGD0+fC93qrV6si12aDc7dFxtkbs9efz+fBxtUWVyHax15vQ6MPr9Ob+//56u1KUyHO32qLX68ry+O9ttEB/vVmezYK+3qv1+vOHwWSl0YrK5Lvm8t52uE2LxGqw15rS6MXu9umXyXi22qLb7dDx+O6Dv174+/ap04/J5Lvp8+J1uEyTx3Kv1pjU6cjv9ura7M/1+vJvtUOAvluiz4bC4LHk8duAvlqPxW2VyHWo0o7O58G22qH9/v3c7tKr1JLq9ON5ulG12Z/s9eWPxW602Z/W6sq93arw9+t8vFWczH6Zy3yFwGH0+fFwtUTO5sChz4bG4rV2uEz7/fp0t0qYynh4uU+u1paNxGvM5b6326N5ulCay33Z7M7y+O6by36ay3ut1ZR9vFek0Im/3qy426Sm0Yz2+vOIwmXV6smDv19ytkbL5b2t1ZXG4rbo8+BytkeOxWygzoTT6MX2+vT+/v6dzYHt9eh7u1TH47fx9+2UyHTd7tK526SfzoPN5r/i8Nn3+/X5/PjK5bzP58Pj8Nqu1Zf8/ft3uU602J6x15qp05DP58Lv9+uq05F1uEuczH+j0IiCv12Mw2miz4eSx3HE4bOz2J3r9OSn0o3J5Ll+vVj6/PiZynq83and7dN/vVrD4bLn8t+QxW7B36/n8uDp9OLg7tbo8+Ht9unZ7M2+3qy73Ke526V6ulHw9+y73aiWyXbe7dSBvlzS6MSq1JGYynmQxm+Tx3N+vFeezYHF4rTU6cey2J2Cvl3I47jg79es1JOhzoWy2Jy/363mr9GjAAASp0lEQVR4nO3d+aNW0xoH8BN12qdJpTTcVKKUJgkNpEQTRcaoTGkihYqGi0o0pzKLuEKRSpK4l0zdUpQ04Jpn7v0v7jmdc3LO2c/a71rPWms/a5++n1+9e+29nqXzvnvvZz1PXh4AAAAAAAAAAAAAAAAAAAAAAAAAAAAAAAAAAAAAAAAAAAAAAAAAAAAAAAAAAAAAAAAAAAAAAAAAAAAAAAAAeFDlmGOrVsuvHqWooEbNWrXrSE88TMfVrZfmUpRV//gG0rMPTcMTGkmtRrHGTaRDEJSmf5NdjiLNTpSOQjCaN5NejGJVW0hHIggtT5JeiCNanSwdjACc0lp6Gcqq2kY6HtKatJJeg/LqHeW/gU+VXoCY6m2lYyKpnXT4KUfxitSWjj3tNOm4SGkuHXmF9h2kIyOjYyfpyKvUlw6NjM7ScVc7XTo2ErpIRz3JGdLRSV/XM6WDnuQs6fCk72zpmCfrJh2ftHXvIR3yZD2lA5S2c6Qjnsu50hFKVwPpeOfUqZd0jFJ1nnS8c+stHaM09ZGOto7zpaOUnip9pYOt4wLpMKXnQulY6+knHae09JeOtKYzu0pHKiUDpCOta6B0pNIxSDrO2lpdJB2rVFwsHWd9taRjlYam0lE2cRSkmA7Olw6yiUbS4fJviHSMzVwiHS/fLpWOsKGhLaUj5tll0hE2dbl0xPy6Qjq+5q6UjplXAWw7MFVVOmY+hZc5quEq6aj5c/Uw6eByXCMdNn+ulY4tz3DpuPkyQjqyTPkNpSPnib+dayOvu76ZxzyvG6Qj58eNnsI18qYGowqHH3zz6PaezhCNkY6dD6PG+gnWuCpHTjG+lp9TRLcIxs2bW72EqvqEcie5zctJKuUmnol+SmYMqnAaT3c6kyrf29zbvQSqduw8d3g5T1TpNkzX8RKmO+MnmuxnG9CUq9OPmVd3egnTVOJMN3g5U3RX6iHz6m4vQZo2nTiVn3+LUTQi9aB51HKGlxjNpM41/e9ezhU1SztoPt3jJ0b3kCe718/JovtSDppHHTyFaBZ5Nk+/s6LZo1IOmz++9tvSmYVzPJ0tGpdy2Ly531eEbiJP5+tfSNRjbsqB86WnrwilvCDRAykHzhObVMVJD86bN2e+6r+aLcj8BWcvXLR4pMXVRJWidtMS/kPxOc0Pf4+O6qZ4imuyIEtvLPlOfsjiV9iy1KLm0WLu7JeXyRpcQa6qwYI8XOYD47hXFEWP+I1VGh7lzn3ppWWHafEY8RH9BVlU7hNth3IvqhIkMj7OnPoTFX71U7tKtBdkToWP9Ge/TT7JT5TS8yRz4u1iI/WOf0h3Qdo/VfEzK59mXlf0jPsYpanrKt60n40P9Vy8XKbugswjPvUw78KyXpZmEWvS1Z+kxvpH7HO6C0L+WuVWvznOYXhS14aVqljwPDnY6tgHNRek72Dyc8yKj5lOZHyBM+Me9HrkvRj7pOaCEO8VDxvOubpMl6V5iTPfAlVR0HgJOssFYa5I+zUuYiOC1YJCmWwefwSjuSCz16qGjP8V1JHZsjQvc2b7inK4+Mty3S/1dcoxX+VcYlbL0qzfwJhrwh/o+GYf3QXZqB70AcY1ZjWR8TXGVDeph7sk/mndBamR8K6PVbnrdcvQiNjMmOi96uFWEreY2o9O3lCP22YL4zrPtIyNiJnm8xy6RD3cm8Tn9R8u9lEPfJr5dUbRarvYSODMU3EDUmQr9XmDx+8L1UMfy7jSVtlr/PKW+SzPVg7W4W3yAJMXVP9crxz9X+aXGj1tHaCUvWM+R/UXyBWK+ihGr3AbKcuHs95pvmQfozQNNv+qLFDu0F+oOsTsnfoWZV8QThn6jJWlecN8hsq9ru8qDzHNOlH+WuWkcr3sIEyp2WY+v7dVY72nPsY4Deh9xTl6MfYwbKAyvUPF+Jp8VDFU0t5287ysFYqzcB4zZqgszQTz2alu0UcnHcRIlOuiOA9n/8pmJ8FKwwfGc5vxIT3SxsSjOJmLinsdzq6SjxyFy7vt5nOL7xU8LMc+H86CtB9Pn4pTu7bijtNALZliPLOx9Ej/znEYK7d3B32HyPgdEl3sKmR+kU85ktGVDSfnqpfJS7Z+kL7sJ8wvO9rpKmY+fWw+r1X0SLtyHcfMft9NHjbe/LqjfMVXX1AYSYH0/2i583S42xE+IY/j5M4lvL8Jxevms+pbhRpIIymYuyD0335W9ahP3UXOj5WMEjPxtNEi9XMfyN6wQ7/O4OxTaOwscp5wUv27UwOdq3EgfwcV+SDzFca1h16W5iJGv/rbqYEm6+Q88heELjXKqYE2yV3wfOAkcTSnBiJy3eMs9hiSj+LVz5UTbHcYPuf2MCZE/ubdq3WoxYKQrzP0zlrBsJDL0nByasiHpnrFnGx24R5DHUq/Kc5hq8MAOvYsZz5UUZcxeofaLMhS6lDlu8lEp7iMoUstOd3wRlIjaW4UtdqnTj0Z/IwxgYR3a9JYibLUpr0lmttKrBaELCXE60DaxGUU3bmSNZl9xEifax5rV8mBer/Eq9Q5NsyyNFU5c9nSkhhpmebBdgtCPSBgpTEGWpaGV2KGukPTbiVttyBUy3TW12ChEPvrXcOayX5ipJN0D7YsPkPlujEykosE2F9vN28m1G8d7fowlgtyOnHwAd40oj1Og+nA4OWseeQT+/XO1z7ackHqEwc3Z00jilq7Dae9hHS2JI8TQ+kXp7atl0W8zOjO7TlDlDqQxHoKFNGNID7SPtp2QajaPhqvYUhbwkpk3MWcBvF6e/1B7aNtF+Ra4uhzONMo8qrbiNo5kTsLok6FwZtU2wWh/vDzi2l1cBtTK8oifLlsi4/1vv7RtgtScCh+NOsB6WHXOw6qhS+4c+hLJK1dqH+4dRFM4hm8Rbf3mx2Hla0hVe1NC1X0wiCe1gtCfIVZFH0O5qkvs6xOoS+J0QzqcVgvyMPxo5/ibJMu8ZXbuLK1Zs+A+Jmz1iCPyHpBiPyKlf8xn0apQN4dMnJHS42Oj3aoh/7h1gtC7TPlFoksNDSMzFLu45+ILN7ewuBw6wV5izg8XrhOXxhJWhYz+Dw+mskbCesFqUHcXts0yzrecWhZ1nCK/pQ4NT7c1waHWy/IUKKSlk3D3iASS21aDBH7QkySta0XZBiRUsrZJ1KKuq9KHVE2SRuRHWCyiZ9u6GLwN6c68aTAZkGCSIafZXH9lgtCv8o+S38A5wsSQg3Zbyyu/+74cFMNDqeLHxqUvWlPvAu3WhBVZYI02UyASFR+yODwatT1HDJ4xTSNuHGw+VIPYtMhK/unBPEry+g3AtVW+xGD4w8SX8JWDXpC6ND6rcX1E9Upje77qS1+Sw2Opx5ucqpnHXGh6+gyfGlx/cSjk7kmL7VbxbMPV5ic/ztiPuxOFkUWEQOmjd34odAL8eGqGNXliLXfvMioGBlx/lE7zKZQ3gk+Imxok8X1f0+MZ7b1skKpvavNnjwTf2GW5KpWkCiElki8/ORiVGaU4a+2zmV/uX71g9nB78RPr7k1RSGEp4smv2oqyicaSZi2HKlx6uSSI8cY74cgXrruMx2jnBD27jATxot9HB+vn/EgG37c3e/+FV90LjA9sNPk+Ol/Mj59GUGU2mCVhi71c3y8zdzcQXPUtjaDHIu4MN6q32IxA+KFCDt30Nx7xNmt7gsTSpqn6BeLGSwgxmN3ojRGVWC0eKUeRS/6jrWWryxmELuPKNTEJiQmehB5clcavNKPGdbLe7C1TOJPYTlRQ30yozwHC/V/Q1ubAUMpwjjQYg7diPGsniYZoGrNt7MZkPiJIqK78e/Nv1DvmGz6fZvYS5z7e4vxPvAcZ33z+JO4jBiOU1KIgfrRO9jmwUkfz2HWZzENsgcdqzGUMar0YluL8cjXZUKYLRqLUF1Wj7MIi7ZOsY7FefwOuUWC2vfJaN9SgtrUlmf1CFwTdQuU9yt/vB/9RtjQVex51KOGs/gXp43K2NHfABzTY67nEBviVOouRhVjr1KDHxlN5H4ni5QmupKnHF7lmSKLqeH4W050kS2L+H95D670G19zl3OnQqZfjvL9T+QOag6sZsrFwms1uX6a07n8xo+NFiJlkeq2qyuhI6YYdo4vnTJejR0cHVTZtLwP+bdTxIs2ebxqbIXIjh6/s4OjgS67wGj1V4L8CS1Ou8xVRUPI4fh/P3LrR57xYu5wnRJaxkqi2tXqmELdM+dVIboRO0Lfw/HTG6j3niHozn25Q+/zsNkJlGgDsW8qj1+vJfrBZ1Ct5O74QctvSQ7HLzuSjK64kKu/khpZKz0IXesxp0T/E8m7nh2jJIrW29dxx6PSL0PBavhQ6DEiYa5QS4uXw0pv0pfOzwwIYRubEqcnShHyviAvbxujJWoO1Iv0Iuz7HiKDPyDsx6X96fGs0iIpk8hfdIa7GMrKp38hBGMBc15UGZoijJZWSQ4qeoTzHy+HsIktyRruH5kJigHv40aK0vdSxVm0SwVXFH5vyduYM1PWTzfZlptDvTMU5zApsFIe2aknLD2ZU/tGNeA+V9nX1SaqTsFOJ1Z0DQ0KtxRxdJVqxBGG23AUBii/fvl3oEQyangMKimUM1tZKKSjTfpaqT+UF8x+Khq95iWArrGrFpL984pZ7dooMky9+2869/lCtIFsURqeN7gTbKoeswunx+Bf7qXb3x5Wiz0qtZ0hRA3Zb95+Vw/a5gV23MjKdUfotBSlkX3FgnQ3d4obknoC/szdSzOzRcKoFps817mOmz/sdJqaSaNOP5aznbF+YoWe/rw2G0XOcRszr/iPTp9OHPe5Tab3JCOTH20M5v+iLiD2GoVLv+VERURt47LGv6vfPCGKln2eo+beBezrjA64i1YKJlZnT/TWHEOvGa77jP/BnNlr/ARYuoVvwFiNl4vlThnYc3nuBJHG26liWuXx/x2rElfCtd4iF5TaSVNRnVmd1S0AVj2wM+G+4whmR7bDbrENUOrYb3wi3T6Ncwed3Pu82eUzXTqtajy69rqGWsdblQjQWfDA1LSYbo5v9jKmjxl0308nb393yE37t7//dZ3N2kno0y+zWQ9ym1Hg1tlM+E/fV/ecQVeMuE50Ukbg/rSZ8q6ke3Z7e0x+PMct9HpxvrSx2L4eRZMSnmtZ62O1HNEOj5fm02q7aRNVlh1hNX4vg2o5ngmW6dKL/ZS2H8NNHiulypAJH7u9YYll1IZQW4+wW5iVUuSQZQE7X7aU872th/ivo0rNc31NKfrUevaN3PYbGM5sYF/GtLCa3hpyUB3uBkWyIUMDbv5FWYG1hTa0hv/+54jH9rv5cu/f2/5a6HLxWeKk9tXI3fbpHR3HWZWsPqKOg6CIGukkDL/+ZFcpof8v7G305SWkKmWERbPfcnbs52cJrhsyxdFVtCJa8mRNZ0exiPLrsjKbW061ee9RQa7XmVkw3l04opoHHjU8+/PzXO6unq1K0c+U4x1GJIp2LSLr+FDW7pt3p9NzR1N9xik104e6jUrUenGfnO/Lq/y+83bnW0bDKO1uz0Nln+o9/xx44jaqgGZeXvcWl5w+0y4VWOH8lAPnja/KPmMvmLNp9c4buw0asW7dupeO6fbi7o11v13q5n6DQHR/zyhvRTJSNUyxgTeL7B+xBoDogplZc6WD6cB86SA65auOTIpU+7Yzaqx0PG0F0bveIW5ZmmDkzhTOGIvE/xBQXXez7RTpkFqZkclUxWRbpYNqI/QSMxy93Ne+Sk34JWY4+PuPxWWgxAyHj4J9qRggHTlPHpIOLJe7RKTApNUPzzGi63olYZ/IKGGon5zvIIyWDi5HH+moebTWOvM8fSF1w3Nvp3R4zWWoxAwHv8uTkOTiK9nnvDKyZwWBdcNz71vpEJtZJB0v7zZLh9hIva7S8fLvv9JBNkF16q1sRm2QjrK+ELvhuWe5az9NScUaK5Gl0nHWVVc6UinhV5JO1/JAu+G594R0qPX8TzpOqeloVZYmLT2lw5SiRdLB1hFuNzwP2PXv03OWdIxS1UU63LmRLZMrr8el452LopFfpbVXOuA5zMh0iRmOutIhT5btEjMcg4NOZGwtHR4BC6WDniTzJWY4lklHXS1LrUHc+UQ67ErT9GqVVzq7pQOv4qP2Ziaw27n55a9gcPCcFN1zbbV0VCQtkI5+3BfSMZF1q3T8K+ojHRFpKxzULXXnV58tADJizHfSq/CXrcqG0keV2t4KKpl5K2uNvryZ+Ecr6cWIohoDj7oHvAn2bhL+VzL/gN+WPtnTvfYusdXoNGBFJd62xteiaa30HzgWNLvr5WekZx6uzyb8Nmtju9RsXL1iX0fpOQMAAAAAAAAAAAAAAAAAAAAAAAAAAAAAAAAAAAAAAAAAAAAAAAAAAAAAAAAAAAAAAAAAAAAAAAAAAAAAAABUWv8HF/WkH1Nv95EAAAAASUVORK5CYII=;" vertex="1" parent="1">
          <mxGeometry x="554" y="350" width="80" height="80" as="geometry" />
        </mxCell>
        <mxCell id="W09Jb_z6VvaA0PAget0v-26" value="" style="endArrow=none;dashed=1;html=1;dashPattern=1 3;strokeWidth=2;rounded=0;" edge="1" parent="1">
          <mxGeometry width="50" height="50" relative="1" as="geometry">
            <mxPoint x="370" y="500" as="sourcePoint" />
            <mxPoint x="370" y="150" as="targetPoint" />
          </mxGeometry>
        </mxCell>
        <mxCell id="W09Jb_z6VvaA0PAget0v-28" value="" style="shape=image;verticalLabelPosition=bottom;labelBackgroundColor=default;verticalAlign=top;aspect=fixed;imageAspect=0;image=data:image/png,iVBORw0KGgoAAAANSUhEUgAABLAAAAHqCAYAAAAUDLf5AAAABGdBTUEAALGPC/xhBQAAACBjSFJNAAB6JgAAgIQAAPoAAACA6AAAdTAAAOpgAAA6mAAAF3CculE8AAAABmJLR0QA/wD/AP+gvaeTAABACUlEQVR42u3deZxmV10n/s95qnoJSSchEZDVhUVEQCWIBAU76e56qjoJBLAhbALOuCs6uP9GsZiRGcaNccGwySaC0GymSdfSnaQZgUQxCoLCoKIwbmySdCekl6p7fn8kDSJZO7Wc5z7v9+sVeZl01z33e86999xP3XtuCcBKectbJjacefobkly0Blv7yLHBhnNzzjn/qvAAAAD9VpQAWBFrG14dJ8QCAAAYAwMlAFbChjPu+rtZ2/AqSb5xQ3dsr+oDAAD0mwALWBmlPnidtvxgxQcAAOg3ARYAAAAATRNgAQAAANA0ARYAAAAATRNgAQAAANA0ARYAAAAATRNgAQAAANA0ARYAAAAATRNgAQAAANA0ARYAAAAATRNgAQAAANA0ARYAAAAATRNgAQAAANA0ARYAAAAATRNgAQAAANA0ARYAAAAATRNgAQAAANA0ARYAAAAATRNgAQAAANA0ARYAAAAATRNgAQAAANA0ARYAAAAATRNgAQAAANA0ARYAAAAATRNgAQAAANA0ARYAAAAATRNgAQAAANA0ARYAAAAATRNgAQAAANA0ARYAAAAATRNgAQAAANA0ARYAAAAATRNgAQAAANA0ARYAAAAATRNgAQAAANA0ARYAAAAATRNgAQAAANA0ARYAAAAATRNgAQAAANA0ARYAAAAATRNgAQAAANA0ARYAAAAATRNgAQAAANA0ARYAAAAATRNgAQAAANA0ARYAAAAATRNgAQAAANA0ARYAAAAATRNgAQAAANA0ARYAAAAATRNgAQAAANA0ARYAAAAATRNgAQAAANA0ARYAAAAATRNgAQAAANA0ARYAAAAATRNgAQAAANA0ARYAAAAATRNgAQAAANA0ARYAAAAATRNgAQAAANA0ARYAAAAATRNgAQAAANA0ARYAAAAATRNgAQAAANA0ARYAAAAATRNgAQAAANA0ARYAAAAATRNgAQAAANA0ARYAAAAATRNgAQAAANA0ARYAAAAATRNgAQAAANA0ARYAAAAATRNgAQAAANA0ARYAAAAATRNgAQAAANA0ARYAAAAATRNgAQAAANA0ARYAAAAATRNgAQAAANA0ARYAAAAATRNgAQAAANA0ARYAAAAATRNgAQAAANA0ARYAAAAATRNgAQAAANA0ARYAAAAATZtUAtbL5ivmvna5m3hdkpOP/7su9ReXtw3nVAcAAAA4zhNYrIuT9u2733KduDzJ45KcdfyfQco7N122cIEKAQAAAMcJsFhzJ+3bd7+lQb0iNV93M/95Y5fyViEWAAAAcJwAizX1xfAq+fpb+WNCLAAAAOCLBFismdsZXh0nxAIAAACSCLBYI3cwvDpOiAUAAAAIsFh9JxheHSfEAgAAgDEnwGJV3cnw6jghFgAAAIwxARarZoXCq+OEWAAAADCmBFisihUOr44TYgEAAMAYEmCx4lYpvDruxhDr8sXHqzQAAACMBwEWK2qVw6vjNnY1u4VYAAAAMB4EWKyYkxYW7rsG4dVxQiwAAAAYEwIsVsRJCwv3XZrMWoVXxwmxAAAAYAwIsLjTvhRelfuvw+aFWAAAANBzAizulHUOr44TYgEAAECPCbA4YY2EV8cJsQAAAKCnBFickMbCq+OEWAAAANBDAixOyNJkeU1j4dVxG7uat0xcvrhTLwEAAEA/CLA4MTUnN9y6TYOad3gSCwAAAPpBgEVfeZ0QAAAAekKAxYkptY5AK71OCAAAAD0gwOKE1FJ+OimHRqCpXicEAACAESfA4oQsnTv13lrqzIiEWF4nBAAAgBEmwOKECbEAAACAtSDA4k4RYgEAAACrTYDFnSbEAgAAAFaTAIsVIcQCAAAAVosAixUjxAIAAABWgwCLFSXEAgAAAFaaAIsVJ8QCAAAAVpIAi1UhxAIAAABWigCLVSPEAgAAAFaCAItVtXTu1Htrl51CLAAAAOBECbBYdUs7drxHiDUGSv5+nbb8ccUHAADoNwEWa0KI1X/HPnvN99dkzxpv9mMbljOl+gAAAP1WlIC1NLlv33eWQfYmdcsINPfooGTXkXOnLtFzt9Nb3rJx8szT31qSC9Zgax/bsJxzvjA19c8KDwAA0G8CLNacEKvnrrhiMpPXr37fHhp8ITt3HlFwAACA/hNgsS6EWACwiobDZw3KmjwNezPqP3RbTvv57N693FhNzhmU/NA61eRgVyaen7m5gwbnCpqauntK+drUeveUcrcM6r0GXdmSklOSsiG1TqZk9eaaJX/fnXLq/9fcWAfoKQEW60aIBQCrYGbqe0str8w6rnVakt3d4SNPz4EDS03UZDh8bCnZm+SUdZx1X10Hkzty6aWfN0jvoLPO2pCv+qpvTanfMUh5eK35xpQ8KMld1/1mquSN3Smnfo8QC2BN5hewfoRYALCCGgivvjTJrH/YPfoxz8jsbLeuDRkOzykl70pylwZ66Mq6cdMwl1xyyGC9zX77piRPKCU7kjyqkf67+bFe8sbu289+1rqPdYCe8xVC1pWvEwLACt5I1/KDrczvaspFufrqM9Z9slvKs9NO+HF2lg5/q5F6C87b/o2DmeH/KjPDj5WSD5eSFyXZmobDqySpNU9vYawD9J0Ai3W3tGPHe2qpFyS5fgSau7GrecumxcUH6jkAgDtpdnaQmakLyvRwX1me+Kta8zOpMc8C4CsIsGjC0rlT765dmR6RJ7E2dRvKmXoNAOAE7do1kenp55Srrvx4qeWSJNtjeRMAboUAi2aM2OuEAACciOHwCeXQwQ+W1Nck+RoFAeD2EGDRFCEWAEBPTU3dvUwP31ZK3pnkmxQEgDtCgEVzhFgAAD0zHJ5XBuUDSZ6kGACcCAEWTRJiAQD0Qsn09GwpeVeSeyoHACdKgEWzhFgAACNsaurkMhy+vaT+kmIAcGcJsGiaEAsAYASdd95dy0R5d0ouVAwAVoIAi+YJsQAARsiuXSeV5aU/Ss1ZigHAShFgMRKEWAAAI+CsszaUQwd3J3msYgCwkgRYjAwhFgBA4zcXdzvzfyc5TyUAWPFrjBIwSr4UYuU61QAAaMjM1ExN+SGFAGA1CLAYOTeGWGUmQiwAgDZs23aPkvKaJEUxAFgNAixGkhALAKAdZcOGV6bmHioBwGoRYDGyhFgAAA3YOfW4pF6gEACsJgEWI02IBQCwrkrpyouVAYDVJsBi5AmxAADWyXD4pCRnKwQAq02ARS8IsQAA1l4p+UlVAGAtCLDoDSEWAMAampp6cDx9BcAamVQC+mRpx473TO7bd0EZ1HclOXmVNrNclnKtagPcjF27JgYHD74gpXz1emy+S/4o8/N7dQSsvkEpP1CVAYA1IsCid5Z27DgwuW/fdBnUuSSnrPCPXy41zzm6Y8dHVBrgP9i1a2Jw6NrX1lKemazPbW1JnlOHw6dkYeGPdAis6vG+sR46+EyFAGCteIWQXlql1wlvDK+2T71BhQG+4mZ2YnDdwdfXlPW+od1YSt6SmakLdAqsouuuOzvJVykEAGvFE1j01tKOHe/ZfNllD10uSysyuRoslYNHpqb+RmUBbsahQ/etydMbac3GUgc/UZM9OgZWxyDdNq8PArCWBFj02uFt2z6R5BMqAQCwcmrNNlUAYC15hRAAgP4q9Z8aas3RlO4zI1/Txz9+S5JvM7i+6HM5cuQGZQBYXQIsAAB6qzvl1BeU5PcbaMrRWvOUXLp/9D8Ec+TItyTZYHQlST5XB932LC5erxQAq0uABQBAf+3evdxtOfW56xxi3Rhe9efrmN9gYCVJPl8H3XT27vuAUgCsPmtgAQDQb7t3L3ezs8/J+9//4+uy/YmJpVxyyaG+lHMwyANrqyu413yklvLGlO59GXT/krrx8ynlyCoV4kj27PmCAwxgbQiwAADov9nZLsnnFeLOq10elNJcsw7XkudlfuFVSXwgEaCHBFgAAMDtN8gDGouIak15eubm36FzAPp8+QEAALi9as5oqTkleWvmhVcAfSfAAgAA7ohTWmpMl/K7ugSg/wRYAADA7VWSnNxQe47k8OGrdAtA/wmwAACA22fXrs1JJhpq0Sdy4MBhHQPQfwIsAADg9jl8+OTGWnSNTgEYDwIsAADg9llebuwr5uWYTgEYDwIsAAAAAJomwAIAAACgaQIsAAAAAJomwAIAAACgaQIsAAAAAJomwAIAAACgaQIsAAAAAJomwAIAAACgaQIsAAAAAJo2qQTAl9m6dXNOPvmkm/1vhw8Psrmcdot/t5ZTs1Qmbva/TdTN6QY3/3MH3SB14rRbadWpKd2/+7mlppZr0nU3pJTDmeiuyVI5nI0bP593veufk1QdOfLjcDInTz4wSxNfn1K+ZlDq16TmnjX1zCRnJOWMpEwm9a5f+ZfL51Pqcmr9XJJ/K8m/JfmXrpZPpNZPZEP3d/nXz/9trr76mEKvmDJI99M1paEm1Udnenpb5ucv0z2wcgbd8k+3dZHtHuFYBxiTCacSQMOGw6eUQX7m5u/NsjkpJ93Cjdsgya0HQslET6t2OMnHk/xtSfm7Lvnb1PqhDAZ/mrm5IwZVg7ZuncymTQ/PoH7HoJZvqzUPS8lDkmxcxa0eTfKRkvLhrtb3Z6J7b75w7AM5cGBJh9zxucRgeup3asoPN9i2L9SUx4/TjW2ZHv5pkm9rpT11w8a7Zc+ezzpM+mEwPfU/asrPt9eyekOt5fFZWNivlwB6PM9RAmjUzNR3l1reFE9KrpSllHywdNnfDep7c6z7P9m//1plWSfD4QNSys6SujPJdyQ5pYFWXZ+U99ZS51Im9mbv3o/1/RyT5Iw7fUNb89ia8syG9/QLteYFGdRDa3cvPfhE5ucX1mViJ8C6Zeeff+8sHz1vfQoxOJT5+T/MejwhPBw+IYN6jxU41h9VU/5Tu4d6vaGWvCDJwVXf1LHuzasyh5iZuVuy/MTVa/jE3szN/aNJyE22bp3M5s3PTOlW5xdmy7k6i4tXKzSs4DxHCaBB09NPLKlvifBqVSe6JfmjrpY35MiRBU/erIGdOx+UbulpJeWiJA8egRZ/rKa8KcmbMj//f/vUFYPpqf9eU37BoFy9E0xN+dHMz//umk/sBFi3FAzcp9TuiiQPWLdJd80ru4WFH8hahljT0z9dUn/FIbni/rzW7MjCwr+t4Bi9W6nLlyXlYavY7k/UlK2Zn/+Hse/BXbsmBocOva6mPmMVt/KFWnN+FhaucMjACl1LlQCavLl8Vdu/5ezdmfBTJfnDrkz8Xvbu/ZCCrOgE8aQcPHhRKfnBJI8a4UHyZzV5WTZseFP27PnCiJ9fhFdrY11CLAHWzQYD6x5efbF/1jLEEl6ttpULsdYmvDpOiLU24dVxQixYyXmsEgBuM3OPWvPjpVv+YJkZ7snU1FmKcidt23aPwXD44nLo4D+WkldnpMOrJKmPLKmvKseO/uNgevpXMxzecyR3Yzj8JuHVmikl9XdywQV3UYp1nux23QvTQHiVJLXk+zKz4zGrvqGZmfsLr1bdI1LK81ZkjNb6M2sUXiXJ15Tk98a65w5d+7w1Cq+S5C4leanDBVbomq4EAF+64UzN+WVQ3l+Gw3dk545vUZI7fNN0n8HM8LfLhom/ryU/mxVYY6kxd62pP1VKPj6Ynnpptm+/32iN8DJhkK7xOeXQIXMt437t21OrJQjW5EaqW6G+rGt8nqhbMzNzn/E9Ma/xuo0lrr2wYuddAG5mbpMLSzf488H09Mvz+MdvUZLbMDV1cmaGP1tq95Fa86O3/IXM3thcU364TE78zWB66jdz4dbTDQIARuYesOueOqbzlQcneYQhAKN68gLglpSa+v3l6JG/zNTUDuW4BcPhs8pE+btS8+K08TXBtbSxpjyvHN70sUxPPyfWlgRgFCY4JU8fy5vfifJ0vQ8jfAwrAcBt+toyKAuD6emXZ+vWzcpxk5mZ+5eZ4WIpeX1q7jHm1bhbSX1NmZ7enx07HmhwANC4R2Rm5iHjttM1uUjXw+gSYAHcPjc+jbV54xXZufOrx74aM8PvKbX7QGo8mfblU+Nzy0T5YIbDH1cLANq+EezGK8zZOfXtqfFLJhjp8xYAd0B5dOmW/izD4Xiun7B9+2mD6eFbSs3rMn6vC97eMXJSKfnfZTh8R847767qAUCLas3TM0avvg+6eH0QRv04VgKAO6rcu5S8O9PTw7Ha7R07HlgmJ95Xk13GwO0ZJrmwLC+9P1NTD1UMABp0/+ycetRY7OmuXRM15Sm6HEabAAvgxJxS0r0j09Nbx2Jvp6d3lonBnyV5iK6/YzcHZVDel5mpC5QCgOZuBsflqaTrrtmWxBIQMOrnLCUAOFHlpJL6R5me/rZe7+Zw+KyS+s4kp+rzE7Kl1PKOTE//gFIA0JKaclG2bp3s/U1vnfD6IPThWFYCgDvl1JI6l+Hwm3q5dzNTP1VKXpdkg66+UyZK6ssyM/VflQKAhtw9J204t9d7uHXr5pp6oa6G0SfAArjzziwlf5Tt20/r1V5NTz+/1PKrGaMFXldbqeWXMxz+okoA0MwNYd+fTtq8+YIkp+lp6MH5SgkAVsT9y+Tkq3qzN9PTzy+pv65bV14p+W+Znvo5lQCgBTX1Sdm166TeXndr9fog9IQAC2DlpoDfneHwR0Z+N6anLiqpv6Y/V3EynfI/Mz39wyoBQAO25NCh83u5ZxduPT0lM7oY+kGABbCCSsmvZ+fOh43sDkxPbyspr4vXBld/rKT+Zqand6oEAOt+TerrU0o3bPruJJv0MPSDAAtgZW0qXXdxRjEAmpr6upL65iQbdeOamCypb+7tBwAAGB0lOzMcntG73Srx+iD0iAALYMXV78j09DNGqslbt55SJsolSc7Uf2vqlFLy9ly49XSlAGAdbUzypF7t0Y4d90ryOF0L/SHAAlgFpdRfG6WvEg42b3pFah6q59bFg8rhTb+nDACs79ylZ08rDQZPSzKhZ6FHh7USAKyCmnsMJiZ+fiTaOj317Jo8TaetqydlZur7lQGAdfRdmZm5T192xuuD0D8CLIBVUkt+NNu2tf1K3nnbv76k/LbeamCiXctLMj39DSoBwLrdG3bdU3uxJ1NTD07yCF0KfTtJAbBaTs7GiR9suH2ldBMvS7JFVzXhLiXdazM769oMwDpNDPrx1NJgonj6CnrIJBlgNSeCtTwvu3ad1GTjZqaem5odeqmpEfPoXHmlVwkBWC+PyMzMQ0Z9J2pyka6E/hFgAayuu+fgwWc316rh8IxSy6/qnvaUkhdnauruKgHAutwgjvprhDunvj01D9ST0MPzkxIArK6SPKe5k/8gL0xyht5p0mmDUn5ZGQBYD7XkGTdOX0b0BrezeDv0lQALYLWVfHt27nxQM+05b/s31pof0DFN3zx8b4bDb1YJANbB/bNz6lEj2fJduyZqylN0IfTTpBIAK+hYkuuSdEm59qZb8WtSUm/5Tj1bknIz56J6SpJTk2zuRWW67ulJZltoymB58IKabOhBVa9NcijJdSm5Pl3ukpItuXFR+tNGfN8mSjJbkyeu8Dg8mkEJa2YpW7Z0ysDan0GWjmV5Qh1W+9JeyrGV+Umly61MldZlrtDl6V3yJ6M3M7j23AzKV7c2VBwtsDIEWMDtUWupv5jlzN84zyrXZnK5y7HBddmw4VjucpfD2b37hlXZ8vbtp2Vy8kGp9cGDQR5Ta85J8g2jVsCS+oyavDDrPUPdseOBNWVXRq+Anyq1vqvL4P3pug9l8+YP5ZJLDt3in3/847fk2LFvSpYfPujKI2vJ+UnuOWL7/IRMTT00i4sfXrGfubj40To9/ZMl9ded1lbdci31Odmz5wtKwZq7dP/H6/TU80vKbyjGqp2k35sNG1+yEj+pK91cqeWnmpr4pVyUrVt/MgcOLI1SrwwGg2fUxsLAUjNfHTCwIgRYwO2ZxLwgcwsvWpeN799/bZL3J3l/l/x+kmRq6sGDUp5TS743yd1GpIwPyNTUN61oGHFiE7ufq8mI/Fq+3lBqeW1X6xvymMdcVWdnb/9vMG8Mt65KclWXvCKzs4P8yZ88apDuGbXmuUlOHoW7o8FE+fkuecaK/tT5+d+o09MRYq2q5VrqszO3+AdKwbqZX3xJnZ6KEGtVTs/vrRs3ztzqL1LuiLnFyzM9/OskLX397+45acO5SRZHplu2bt1cUy9srVld8irHDKwMARZwO6683eVNtWdx8aNd8nPZuvWXc9LGHy+1/GxufG2s8flu2ZZk/QKs7dvvV0ueNQIj7nBJfUnX5X/XxYVP39Tnd+4n3hh+XdUlV+WCC144OHr0x2rJTyW5S8uFqDVPzXD4S1lY+NuVvbGd/406Pf3BrMBC/oPksTX1x9otYq6pyfNTynVreKz/v8zNXeXiwbqbX3xJnZn6YOrgzDt/rHffWVOe1/DeXldL/cnUwedX/yp1eC7z8yt6Tqklryw1L2mpoIM6eFo3SgHW5s0XJLW1JQT+OAsLf+VkBCtDgAWMrgMHrkvyojo19cYyKK9L8tiWm1tK2VaT31y3iejkxM+MwNpXf1y7+v11cfGjq7aFPXs+2yW/lKmp15bB4GVJnWq4HhODkp/tku9b+Rvb+ctW4sd0ye7B9NS1NeUXGqzftTUZZmHhT50wGVtzi5ev2LE+HF5TS17Q4F5eX2sen/nFK0a2nzYdeW0Ob3pRGvrFSk2elF27fnjVlolY6XlWrU9v7duJNeUVTkKwgvczSgCMvMXFv69bTj2npL687YbWrTnrrPUJkM4776419XtbLk4p+e91fuG7sprh1X8cN/Pz0zXlF9Pa6rlffgPxPZmaunvLI7ubX/zFUvO/GmvWtTVlh/AKVvBYX1j4pVLzosaadX2tmcnCwhUjXdx3HrimlLy5sVadmkOHzh+J+l249fSUzDR2Ab8mGza83ZkDVo4AC+iH3buXu/nFHywlv9NwK7fkHmc+Yn3uOo5dlJSTGq3LUi31Wd3cwguy9kFSzfz8L9eUp+bGr2i2aGMGK7wO1moMsVJe1laLytWZn3+/kyOs8LE+MdHYdbZ8IAsLf9yL2tZycWttKumeNhLFu2HTdyfZ1Fbt8lof8oCVJcAC+jWxPuXUn0jKnmYbWLMuAVbpyrNbrUhN+cF1X+x6fn53TbkoyXKLRSrJcx3dAD03P//+pPxZY1eg8zIcntF66UopzQVtFm+HlSfAAvpl9+7luvnw9yT5xyZPul152JpvdGrqwSn59hbrUWt+IfPzv9fIjcPba8rPNDo1f1h27vgWBzhAv9WksadZszGlPLHpou3Yca+kfldjrbJ4O6zGvZQSAL3zzgPX1FL/S5MT01IevuYn+sGg1aevrsjZZ7+4qRbNz78kNe9s8oLdTXyPgxug57ZseWOSz7fUpJI8ve072sHTkkw0Nd+zeDuszuGuBEAvzS2+NcmV7TWsPvzGueAamZ0d1NRnNthDh+py98zMznatdVAdDL6/tZuHGyfD9Rnr9hEAANbG7t03lNTfb+wKtDXnn3/vVktWBmnr9UGLt8OqEWABvVXb+ypakmzJ1NR91mxrV131mCT3aa5vUmazb98/Nzlw5uY+U1N+ocGW3T1f9VXf5cgG6Leuy8Vp6+u4gywtPbXJYu3Y8cDUnNVSkyzeDqt5MgK4LRO1jGS7jxy5NC2uhTUYrFmgNEg3bLBn/jGlvLTpsbNly8uT/G1zQ6eUYQDot8XFjyZ5d0tNKqU2+RrhYDBo7ilzi7fDat7bANyW5VJHst0HDiyVkjc3165a77Vmm0qZam73S349c3NHmh47u3cv15pfb652bQaSAKz4VCEXN3YBOiszMw9pcE5xUWNNsng7rCIBFnDbRvUJrCRdqZe0d+ZdowBr27Yzkzyysb0/lsmNbxiNK+TgjUm9oa1GlYfe+LUlAHrts599R5KmXrUfdF1brxEOh49K8qCWmlRrXmnwwiqeh5QAuE2j+gRWknzqc1cmaWodgkEdrE0AsWFiR4Pn+cXs2fPZkRg7c3MHkzLXWKtKJsoOJyWAnrv66mOl5jUtNamWPCNr+SGa25pPDRr7OmLNNdm48W0GL6zica8EwG0a4SewcvXVx5LyF021qdR7rM0Jvr31kmqpbxql4VNr3tjehds6WADjoKv15UmWG2rS/TMcflsTLZmdHdSaXU1N7yzeDmswDwbouZL6gaYaVOtJa7KZpLUv1tVMbloYqcGzadNiYzcPqclWRzXAGFhc/H9J2dvUzWMrTz29733bkjT1Sr3F22ENzkFKANymUX6FMElX2vqaXK1l86pv5MKtpyf52sa64u9G5vXB4y655FBKPtJYq+6ZnTu/2okJoP9q6ZpazL3WPC1bt06u+03soLT2VcT3WLwd1uDYVwLgNo3yK4Q3Trf+oanmlKz+E1iHN39LGlqn4sbdrn82iqOnJO9vrlHLy9/ixAQwBuYW55OmfhF392zceM66tmDr1s01eWJTM82aVxissPq+mJ5P7tu3tUx0D1ISRurGspbPH902tVslVvtmebSfwEpysKnW1KzFK4SPaK4XavnEKA6erpZPljR2CJTyrUnmnZwAeq/WkleVmhe30qDBoDy9S/atWwNO2nh+ak5raF7Xu8XbJ/fPP7YMyjc6/GjiEFsefGxpx44DyU0B1sb9C99dS31TaplUHkZqMCfZcPnibxw7d+onVWMVjfoTWKUeTFu7sGnVJ5e1fnNrvVZLfVi2bp3MgQNLIzN2ZmcH5U+ufGhr+dUg9Vs7ZyaA8TC58fdy7Ohsks0tNKcmT8quXT+c3btvWJ9pXVtfHyzJa2uPFm+fuHzfeaXWt6Wu/nwVbtcxNqjLG/cvPufo9qk3DG4Mr8qb8u+exoKRUvP8DZcv/rpCcIu6iUNjd1gMGnwCK2VnOWnTH+asszaMRBFnZweDq656dWqe3N5pL9/qwAYYE3v2fLaUvL2hFp2a6649b122PDNzalJmmppm9mjx9onL9503qPVtifCKtoZmLXntxv2Lz5wUXtGPu/U8f8PlC288du7wasXgK8dHPZgyRvt71lkbUvMNjR6rTx7c7ave0J23/edbL+PgqqteUFOf3Wjzvj5TUydncfF6BzhA/3W1XFxSm3nyqNQ8vSZvXYc53a408iTaTXqzePtJCwv3Xar1HUk2OOJo0EQtee1khFf0h7HMzdu48ViOHR2f/b3b3e6d1GYnHzV5SlmeeErrZaxpeum3QZL7JvmoAxxgDMzPvyfTUx9KysPaaFA5L8PhGVlY+Lc13Wraen2wT4u3L0/mP0V4RdsmfIUQoH/uowRjoBT9DDBGagYva6g5G1PK2n4JcDi8Z1K/q6EO6c/i7W95y0RNea6jjNYJsAD6575KoJ8B6JmNG38/DX1Zec2fhirlaUkmmtn/QV6XnizevunM03YmuZ+DjNYJsAD6x5M5+hmAvrnkkkMl9U3tNKhuzfnn33uttlZKber1wa7LK/sytGoG3+8AYxQIsAB6d2LvBBvj0M9eIQQYO10tFzc15VhaeuqabGk4fEBqzmpo3/uzePsVe+9TU2ccXYzGfQ4AvVIj2BiPfhZUAoydhYUPJvWqVpqzVk9FDZJnNXUN7tPi7d3Ef05Dr2bCbZwLAOiZM5RgDNRypiIAjOPpv6GnsGrOyszMQ1Z/n3NRQ/ts8XZYJwIsgP65ixKMgZKTFAFgLG/h3pzkM800p9anrOrPHw4fleRBzVx+Ld4O63f2UwKAvqmCjXEgwAIYT3NzR0rJ69u5HNVnJimrdsM6SFuLty/XV/VmxmjxdkaMAAugd4pgYxxUARbAuOoyuDhJ10hz7p/h8NtW5SfPzg5qza6GSv+eLC5+uA9jyOLtjCIBFkDveAJrTHhVFGBczc39XUoua+im8mmr8oPf975tSe7VzAzL4u2w3ucaAPrFE1jjQVAJMNZXgdrOYu615OnZunVyxW9WB6Wd1wf7tHj77OygpjzHUcSoEWAB9M8mJRgHZXNWcc0RABp3+PCeJP/YSGvuno0bz1nRn7h16+aaPLGZq26PFm+f+M6zdyb5GgcRo0aABdA3NccUYSyUzM4KsADG1YEDSzXtLCg+mCgr+xrhSRvPT3JaK/vXp8XbSykWb2ckCbAA+qbkBkUAgDFQyyuSNn5xVWuenF27Vuz19lKb+vpgrxZvL8lOBw+jSIAF0DtFgAUA42Bh4V+S7GmkNafmumvPW5GfNDNzalKa+UJeLXllX4bMsW7Df4rF2xlRAiyA3qkCLAAYl6t+TTOLuZe6Qq8R1roryeY2CpxrMrnxrb0YLLOzg5L6XEcNo0qABdyOC/eEdXZGiiewAGBsLCxcluRjjbTmvFy49fQ7PZNJO68PWrwd2iHAAuibWr+gCAAwRlf+lJc30pZNObz5yXfqJwyH90zqd7VSXIu3QzsEWED/LS2N1xNkgxzU6QAwRjYffnWSJn6BVVLv3GuEpTwtzazRVN5r8XZo6TYHgF4pyT+qAgCMkXceuKak7G6kNefk/PPvfcLzmFKbeX2wlvqKvgwRi7fTBwIsgJ7pUgVYADBu1/9B18pi7oMsLT31hP7mcPiA1JzVxF5YvB2aI8AC6JvqCayx6WkAOG7v4p+k5OoWmlKSE3uNsJRntlJOi7dDewRYAH1T8v8UofdqLfXHMzvbKQUAX7w4JI0s5l4fmenpb7jjU5g7uX7WCurZ4u3f5+igDwZJjioDvbA8MJYhSZaqAKvn9ye11B/P3OJvKwUAX2Zy4x8k+XwjrbljYdRw+KgkD2qj6f1ZvD37959p8XZ64thkl3rhIOUdSTapByN7N5cyu7Rjx1+oBCTZvPmfcuxoTdLq1xc/UUsu1lEnesIrf5O5hbcrBABfYc+eL5SZ4R/Umh9d76aU1GfW5IW5na+8D5KntfJufJ8Wb8/27Z+r+xf/ayn5Xw4QRtixUutTJpe3Dedy2cIThViM7L1cyuzSth0vVAn40uQ108N/SPJ1zbWt5JN1sHxuLt3/cR0FACuvGyz/blme+JGs/y+y7p/p6Udmfv79t/knZ2cH9ar37Wrid28112RDTxZvv8nS9qlfmdy/GCEWI+pYqfUpR7cP3zmZJMvbhnODKxa/s3QN3uzArV2gSzm4dO6OBZWAr/AXaS3AujG8Okd4BQCr6NL9H8lw+Mcpedx6N2VQ69O75LYDrPe9b1sG5d5NTFdKfX3tyeLt/97S9qlfmbxs8QOD5DQHCaOk1sE/HN2+/f1JMnn8Xx47Z+rPkvyZ8gD04ESf8hcl9Ukttal0+f06J7wCgFWfB5R6cUl53Pq3Ixdl166fyu7dy7f25wYT5Wm1kfcHuy6v7Ou4WNo2tejoYJT5CiFAL2eutb014Uq5j44BgDWw5bS3p+RTDbTkq3Pw4Dm3+ie2bt1cuzyxkclKfxZvhx4SYAH00YYNH2itSTX1gToGANbA7t1HS62vbuKGc5Cn3+of2LTpvJSc3sRcpU+Lt0MPCbAA+uhd7/qnRn7z+u89KhduPV3nAMDq65a6lyVZXu921JonZ9euk27pv5dyGwHXmjU012SyX4u3Q98IsAB6O3PNlY21aDJHNm7XMQCwBvbv/2SS+QZacmoOHtx5s/9lZubUpM60UK5S6uvTw8XboU8EWAA9VZPmvtA5qHmCngGANZoL1FzcQjtu+Smr5e9OykkttLHPi7dDXwiwAPqqlPnWmlRTdmVm5m46BwDWwNlnzyX5+wZact7NLSNQamnj9UGLt8NIEGAB9NX8/D8k+Whjrdo06Lof1TkAsAZmZ7ua0sKTRZtyZOOTvuzfDIf3TLK1hTJZvB1GgwALuB1X9VoUYTSVmvaewir5CU9hAcBaTQbKq5IcWf85yX942qrUi5JMrP/ExOLtMCoEWAA91jW4DlaSUwe1/qreAYA1MDf3mZL6jgZack7OP//ex/+fkkETrw9avB1Gx6QSAL23vFwyGNOHyI4cOZBNm65JyektNaumfk9mpt6cucW5puu3a9fE4ODBX6slD12XOpX8ceYW/ttIjLWuW27rOOsmAsCNZ8RBLi5dLlrnZgzK0rG9mR5+OimDpD6yjcuXxdthVAiwAPrswIHDZWb4h7XmBxtrWSm1vKFOTT0yi4t/32TtZmcHgyuvfHUt+Z51K1LN9jI9PK2bX/jJ5sdaKdc31qDTnQAAbrJ38f9kZvjh1PX5hcy/8/Ab/6e2cq14bxYXLN4OI8IrhAA913V5TaNNO6OU8vab+yrRursxvHrNeoZXx9Xk+YOZ4YuaH2innnpdYy362szOmucAHL+edHm5KvzHa2zn6SsYISZ2AH23sPCnSf66ybaVfEs5vGlvtm49pal2XXnlD7cQXn1xgl1zdvPjbPfuo0mONdSi03Llld/iBABwk02bXpfkkEIcv7jmmmzYtFshYHQIsADGYY5W6msabt7ZZdOmP87MzH2aaM3U1INLyYtbKlApef+IDLWmnsIapLlXZwHWzyWXHCo1f6gQx6+tFm+HUSPAAhiLWdrkG5Istdu+fEup3Z9kODxnXdsxM/OQMiiXJzm5pfJ0qSMSYJXPt9SaWvLczMx8lxMAwPHrSV6qCjfVwuLtMHIEWADjYO/efy01b2u8lfcqJZcNpqd/a11eKZyeflKp3buT3LO9+42Jd4/ISPvbxtozWbrunRkOn+AkAJBkYeGDqfkThcj7srho8XYYMb5CCDAmulp/tZTy1MabWWrqj5XNmy6qM8P/kQwuztzckVXd4szM/Qdd96Ka2mhtyp9nbu4zozDGSqkfqzVTbTUqp5fknZmefm8t3R+k1CtzpPuXnHHG529atwtgrNRSLy4p3z7WNUh9hZEAo0eABTAuFhevzvTwsiTbRqC1dys1L0m6ny3TU7/fdXl1Fhc/umI/fXZ2kKuueswg+cFau4tqyUSrhSi1LtQRGWJdLX9T0mpr63eUWr4jtSQbBsmhg8n0cJU6LZ+sg+Vzcun+jzvxAM3Zctpbcujgryc5cyz3v+aabLR4O4wiARbAWM3ZymxJ3TZCTf7qmvLTZZCfzvTwL0vKZV2tl2Vp6apcdtnn7tBPmpq6bybymEEtj61Xve/CpNx7FIKhbjB42+gMsPqxFMdZau5Xuokr6nnbhVhAe3bvvqFMD19Xk+eP4+6XUl9fLd4OI0mABTBO5uffk+mpvUnZOYKtf3hNfXgp+S/ZMJlMD/8tqR8rN667dH1quaZLrk8pS4NaT0spd0mtd68lX5fk65LcLTU3PR80IilLyYczN/cXI9NDg8HVqV0dnQKvopr7leWJy+tZZz0wV199zMkHaElXBr9bavcTGcM1kbtaXm0EwGgSYAGM2311mfiFUrvpHkxaz0jKo2vy6CRJOZ6a1NRy4/+OeoxSkzeMVIPn5j6T6eGHkjzckZYk+Zrc614bBFhAg+frv8v08PIk28dsz9+XhYUPGgAwmnyFEGD8Jq1/UVJepRDNO5Iy8bpRa3RJuUzXAbSvplw8fvts8XYYZQIsgDHUHTv2/yX5nEq0q9T8Qfbu/deRG1u1CrAARsHhw5ck9Z/GaI+vzQaLt8MoE2ABjKPLLvtcTfmvCtGs2tX6kpFs+ZEj705ynS4EaNyBA0s1g7F5IrukvD4Wb4eRJsACGFfz869IyuUK0aQ9WVz88IjeEF1XUt+sCwFGQK0vTzIW6/R1tf6eDofRJsACGOdp68TS98XTMq1ZqhPLPzfSNwkZuEkAGAULC/+S1HeNwZ5avB16QIAFMM4u3f/xWup/Voh2lNRX5NL9HxnpnZifvzLJX+lNgPbVLr1fzN3i7dAPAizgtk3UMtLtX14uOvFWzC2+udS8XiGamGFf03V5YT92pbxEhwKMgMXF/Uk+1uM9tHg79IQAC4B0tf5wEo/Wr7Na6k9kcfHTvdiZLVteG09hAYzE5afW9PYJJYu3Q38IsABIFhevr4OJJyT5tGKs2wz7XZlffF1v9mf37uVa6i/oWIARMDn56iS9DHks3g79IcAC4EZ7936ilu5JSb1BMdbc5+pS9wO926u5xXcm+WPdC9C4Sy/9fKl5aw/3zOLt0CMCLAC+ZG7fe2uXpyRZUow1s1xLfVb27fvnPu5cnVh+TpKDuhmgbd1g0LvF3C3eDv0iwALgyy0uvqum/ucknWKsxeS6/EzmFud6u4OX7v94TflxPQ3QuLm5q5L8eY/2yOLt0DMCLAC+0vzi62rq9yZZVozVU2pen/n53+j/eJp/bal5sx4HaFst9eW9ucZavB16R4AFwM2bX3xdTXlWkmOKsSou6U499fvGZWe7U099bqyHBdC2G46+Mcm1vbjuDJZfrUOhXwRYANyy+fk31ZSZvkxmG7JQDx95anbvPjo2e7x79w11afmC1HxA9wM06sCB60ryhh7syfuyd5/rDfSMAAuAWzc/f1lNeVyS/6cYK2KhHj5yYQ4cODx2e75//7W1685Lyd8YBgBt6iaWX5qkjvI+1JRX6knoHwEWALdtfv4v64aNj0jKomKcuJK8qm459fFjGV4dt2/fP9cuj05ywIgAaNCl+z+S5D0jvAfXZsOGt+hI6B8BFgC3z549n61btuwsNS+KLxTeUcu15ie6+YXvG6vXBm/JwsK/1S2nDkvN6w0NgPbUlItHte0Wb4f+EmABcPvt3r3cLSz8Qk35rqR8XEFul8/WmvOzsPCbSvFlY+lot7DwnFrzQ0muUxCAhmzZ8raUfGoUm27xdugvARYAd9z8/Hvq4cPfXEp+J8mygtyCmnfWY0sPzcLCvGLcQoUWFl5WUx6W5ArlAGjE7t1HSy2vGcGWW7wdekyABcCJOXDgum5u4cfqoHtkkisV5MtcW0v9gbqw8MRcdtmnlOM2zM//Q3302dtrzffGxwIAmtAtLV2cEfsllcXbod8EWADcOXv3faA++uzvrKU+02uFWS7Jq+py95DMLb7C4LgDZme7LCy8pm459QG11B9I8mlFAVhH+/d/MqkLI9Rii7dDzwmwALjzZme7zC3+Qd2y5RtrzY+m5JNjV4Oad9aJ5Yd18wvfl337/tmgOEG7dx/N3OIr6uEjX1NLnp2aDygKwDpd2kpeNipttXg79J8AC4CVs3v30SwsvLR++rMPqCnPSvKXPd/j5SSX1JTH1IWFJ9706XFWwoEDhzO38Pq6sPCttXTfWZJXxVNZAGvr2x9zaZJ/GIWmWrwd+k+ABS1egEveluRoG62pH8py+fBIF/Saa/4tSTOLaNfkTb0fxFdffSzz82+o8wvfXLv6yJLyiiTX92b/aq4pqb9Vu/rAOr/whMzPWwNsNc3te283v/B9dcup96o1jyvJbyT1Q0m6xlv+9px11uG1HZq1ofNL3ZtDh65Z92tq1721qWtq2fChkT4eP/Wpz6VkXzOjrHRvdpJcRbOzXS31VSPQ0ist3g79V5QAGjUcTpeSdyTZvI436R+pExPnZu/efx35eu7atbFcd/BtqTl/XSfaqT+f+cUXj+WY3r79tEwOLiwpu5LsSLJxtHag3pCUfbXmrTlyZHcOHDgc1n9MTUycPRjkMbXLw1LykCRfl2RDA+PlHfUzn3tqrr762Jpvenrqv5SU31jnAizUw0cubOY4mZ7eWVLfnmSTa+oKmJnZVGr3tiTnuaaOgZ07v7p0y59o+bpdU56b+fnX6izoNwEWND1BnLqg1PK8ddr6wVoGP5i5uc/0pp5bt24enLTpd2vNfddlclXqJZlb/G0DO8l55901y8eGg1Kmaq1TSbl3oy39TKnZ0yWXZOPGfdbWGAFnnbUhZ555/5TytRnk7ulyt8Eg90wtW5K6JclkTdmc1JNWbXJV8rfdpz/7vHUJr46bnn5eSb1gfSaX9RNdmfiRzM0daWpsDIdPKCU/6pq6QnbtOmlw6NDFNXVdzt+15o+ysPA7TnprdFzPDN+amic32biaa+rGjfd2jYYxOBcpAQDrbmrqwSnl7EEpj66pj07yjVn7p2iOJflQKfnTLvX9KZPvz8kn/3V2717WQQCMs8H01G/WrNsvVW/9hrbkd7q5hR/TS9B/k0oAwLpbXPxoko92yWuS3PgUzVd91YNSykNS64MHydfWkvsluW+Seyc55QS39IXcuBjtJ0vKJ7vSfTJd+WQm6sdy8ml/md27b6h6AwBGRle631MFGA8CLADac+OrV3910z9fuVL3WWdtyOmnn5GJibsmOTkTExvSdV8KtUo5nK67IZOTh7K0dCwbNlyTY8eOZnHxiwvJC6oA4PYq92y0Xe+1eDuMDwEWAKPnxoDrUzf9AwCslu3bT6up57e4+kyt9bd0EIyPgRIAAABwszYMnpqUk9prWP2nfPaz79BBMD4EWAAAAHyl2dlBSWlygfRacvG6fu0VWHNeIQQAAOArXXXVU5M8tMGWHcnR5VfpIBgvnsACAADgy5133l1L6v9ssWml5s257DLrYMKYEWABAADwJbOzg7K8/LokX9Ni87qJ7rd1EoyfogQAAAAkSbZuPaVs3vj6pDyx0Ra+r84vfIeOgvFjDSwAAIBxt2vXRK679rtLLbNJHtxqM2vK7+gsGE8CLAAAgHG0despOWnjYwcpW+uhg09KygMab/E/ZsuWt+k4GE8CLAAAgNYNh+dkkEfd4b9Xy4ZBradkkJJaTq/JGUl3n6TcL8lXp2ZQR6QEtdRfye7dRw0GGE8CLAAAgJbNTM2UmnekZtMd/8s1tSSpOf5/MqJLIf9rTjntVQYDjC9fIQQAAGjVzNRMqeUdyYmEV/1RU341u3ffYEDA+BJgAQAANKrU8tKMeXiVkk+l615uNMB4E2ABAAC0q4x7AWrqC7O4eL2hAONNgAUAAECr/m8+/TlrXwECLAAAANpUS/25XH31MZUAfIUQAACA9tT8n8wvvlMhgMQTWAAAALTnaB0MfkgZgOMEWAAAADSlpvzPzM39tUoAxwmwAAAAaMnHcvjwi5UB+PesgUWvbb5i7muX6+DMlfhZpeT6o+cMP6qqAACwao7VMnh2Dhw4rBTAvyfAor+D+7KFxy13ZW+Sk1fi59WauuHyhR89du7wd1UXAABWXq35hczPXaUSwH/kFUJ6afKyhceVrFx4dZOSWn5nw/7FH1FhAABYcfM5++xfUwbg5giw6J3Jyxe3lZT5rGx4dVxJyW9vuHz+m1UaAABWbJb9ydrVZ2d2tlMM4OYIsOiVycsWHldq/ijJSat5ea1dTlVtAABYEQdrLRdkcfHTSgHcEgEWvbFKrw0CAACr52hNeVLm5/9SKYBbI8CiF4RXAAAwcpZrqd+T+fnLlAK4LQIsRp7wCgAARs7RWupFmVt8s1IAt+veXwkY6QEsvAIAgFHzhVrz5MwvzisFcHt5AouRJbwCAICR88+1qzuysCC8Au4QARYjSXgFAAAj50CteWQWF9+nFMAdJcBi5AivAABgpCzXlBfWLaduz8LCvygHcEJZgBIwUgNWeAUAAKOj5Ora5YezMP+nigHcGZ7AYmQIrwAAYGR8vtb8RP32sx+VhQXhFXDnMwElYCQGqvAKAABGwadrqb+VTUdfmnceuCYLCyoCrEwuoAQ0P0iFVwAA0Ljy8Zr8erZseU12775BPYAVzwaUgKYHqPAKAADaVHNNKdnTlbo7p5y6N7t3LysKsGr5gBLQ7OAUXgEAwBcaa8/HSs27u0Hdky2nLdTdu4/qImAtCLBoc2AKrwAAIHUwcVHpli9Lcrd12Pz1SflISf68q/Xd6boD2bfvn6tuAdYjJ1ACmhuUwisAALjR3r0fqjt3blulEOsLST6V5F+TfLqk/mtX8rdJ/ip18JHMz38iSRVYAU1kBUpAUwNSeAUAAF/uxhDr27K8/MAT+vuDwXVZXj6WycmjKUevz7FBzdGjn8mBA9f9+z8mqAKazguUgGYGo/AKAABu3t69n0jyCYUAxtVACWjB5OWL20rKXEYjvDo8kclP6TUAAABYG57AYv0H4WULjys170xylxFo7pGu1l3Htm//mJ4DAACAtVGUgPV002uDlyY5ZQSae6Sr9buXtw/fpecAAABg7QiwWDfCKwAAAOD2EGCxLoRXAAAAwO0lwGLNCa967oorJjN5/ZZV387SyTfknHMOKzgAAED/CbBYUyMXXpXy5OVzd1yq526nPXvusuEum9+V1HPWYGufnKiDcw5v3/5xhQcAAOg3ARZrRnjVc3v23GXDXTbtSXLuGm5ViAUAADAGBkrAWhBe9d+Gu2x8ZdY2vEqS+y2Xbl71AQAA+k2AxaoTXo2Lcp912vB91B4AAKDfBFisKuEVAAAAcGcJsFg1wisAAABgJQiwWBXCKwAAAGClCLBYccIrAAAAYCUJsFhRwisAAABgpQmwWDHCKwAAAGA1CLBYEcIrAAAAYLUIsLjThFcAAADAahJgcacIrwAAAIDVJsDihAmvAAAAgLUgwOKECK8AAACAtTKpBJyIUsqLUkcivLqh1vqE5W1T+/QaAAAAjCYBFn12pCtll/AKAAAARptXCOkrrw0CAABAT3gCixNSag7WdpvntUEAAADoEU9gcUKOLtXnJvlwg0070pWya2n7UHgFAAAAPSHA4sQMh58+tlS3pa0Qy2uDAAAA0EMCLE7cl0Ksv2qgNcIrAAAA6CkBFnfOjSHWuVnfEEt4BQAAAD0mwOLOW98QS3gFAAAAPSfAYmWsT4h1Q62D84VXAAAA0G8CLFbO2oZYN9Q6ePzS9u37FR4AAAD6TYDFylqbEEt4BQAAAGNEgMXKW90QS3gFAAAAY0aAxepYnRBLeAUAAABjSIDF6lnZEEt4BQAAAGNKgMXqWpkQS3gFAAAAY0yAxeq7cyGW8AoAAADGnACLtXFiIZbwCgAAABBgsYbuWIglvAIAAACSCLBYa8Php4/VwbbceoglvAIAAAC+SIDF2tu+/VO3EmIJrwAAAIAvI8BifWzf/qljG7odSS5LcnWSq1PzZ8IrAAAA4D+aVALWzeOm/+VYsl0hAAAAgFvjCSwAAAAAmibAAgAAAKBpAiwAAAAAmibAAgAAAKBpAiwAAAAAmibAAgAAAKBpAiwAAAAAmibAAgAAAKBpAiwAAAAAmibAAgAAAKBpAiwAAAAAmibAAgAAAKBpAiwAAAAAmibAAgAAAKBpAiwAAAAAmibAAgAAAKBpAiwAAAAAmibAAgAAAKBpAiwAAAAAmibAAgAAAKBpAiwAAAAAmibAAgAAAKBpAiwAAAAAmibAAgAAAKBpAiwAAAAAmibAAgAAAKBpAiwAAAAAmibAAgAAAKBpAiwAAAAAmibAAgAAAKBpAiwAAAAAmibAAgAAAKBpAiwAAAAAmibAAgAAAKBpAiwAAAAAmibAAgAAAKBpAiwAAAAAmibAAgAAAKBpAiwAAAAAmibAAgAAAKBpAiwAAAAAmibAAgAAAKBpAiwAAAAAmibAAgAAAKBpAiwAAAAAmibAAgAAAKBpAiwAAAAAmibAAgAAAKBpAiwAAAAAmibAAgAAAKBpAiwAAAAAmibAAgAAAKBpAiwAAAAAmibAAgAAAKBpAiwAAAAAmibAAgAAAKBpAiwAAAAAmibAAgAAAKBpAiwAAAAAmibAAgAAAKBpAiwAAAAAmibAAgAAAKBpAiwAAAAAmibAAgAAAKBpAiwAAAAAmibAAgAAAKBpAiwAAAAAmibAAgAAAKBpAiwAAAAAmibAAgAAAKBpAiwAAAAAmibAAgAAAKBpAiwAAAAAmibAAgAAAKBpAiwAAAAAmibAAgAAAKBpAiwAAAAAmibAAgAAAKBpAiwAAAAAmibAAgAAAKBpAiwAAAAAmibAAgAAAKBpAiwAAAAAmibAAgAAAKBpAiwAAAAAmibAAgAAAKBpAiwAAAAAmibAAlbKX67LVms+qPQAAAD9JsACVsSxz13zE0l+f403+xfHlrrzVB8AAKDfihIAK+Ytb5nYcObpr0ly/hps7SPHNh49P489//MKDwAAAAAAAAAAAAAAADfn/weDG+E0YERe1AAAACV0RVh0ZGF0ZTpjcmVhdGUAMjAyMy0wMy0yMVQxNjoxNDoyNyswMDowMJ7rNK8AAAAldEVYdGRhdGU6bW9kaWZ5ADIwMjMtMDMtMjFUMTY6MTQ6MjcrMDA6MDDvtowTAAAAAElFTkSuQmCC;" vertex="1" parent="1">
          <mxGeometry x="140" y="328.25" width="180" height="73.5" as="geometry" />
        </mxCell>
        <mxCell id="W09Jb_z6VvaA0PAget0v-29" value="호스팅 사이트" style="text;html=1;align=center;verticalAlign=middle;resizable=0;points=[];autosize=1;strokeColor=none;fillColor=none;" vertex="1" parent="1">
          <mxGeometry x="185" y="401.75" width="90" height="30" as="geometry" />
        </mxCell>
        <mxCell id="W09Jb_z6VvaA0PAget0v-30" value="" style="endArrow=classic;html=1;rounded=0;entryX=0;entryY=0.5;entryDx=0;entryDy=0;exitX=1;exitY=0.5;exitDx=0;exitDy=0;" edge="1" parent="1" source="W09Jb_z6VvaA0PAget0v-28" target="W09Jb_z6VvaA0PAget0v-2">
          <mxGeometry width="50" height="50" relative="1" as="geometry">
            <mxPoint x="60" y="340" as="sourcePoint" />
            <mxPoint x="110" y="290" as="targetPoint" />
          </mxGeometry>
        </mxCell>
        <mxCell id="W09Jb_z6VvaA0PAget0v-31" value="&lt;font style=&quot;font-size: 17px;&quot;&gt;Public&lt;/font&gt;" style="text;html=1;align=center;verticalAlign=middle;resizable=0;points=[];autosize=1;strokeColor=none;fillColor=none;" vertex="1" parent="1">
          <mxGeometry x="300" y="150" width="70" height="30" as="geometry" />
        </mxCell>
        <mxCell id="W09Jb_z6VvaA0PAget0v-32" value="&lt;font style=&quot;font-size: 17px;&quot;&gt;Private&lt;/font&gt;" style="text;html=1;align=center;verticalAlign=middle;resizable=0;points=[];autosize=1;strokeColor=none;fillColor=none;" vertex="1" parent="1">
          <mxGeometry x="365" y="150" width="80" height="30" as="geometry" />
        </mxCell>
      </root>
    </mxGraphModel>
  </diagram>
</mxfile>
